<?xml version="1.0"?>
<svg xmlns="http://www.w3.org/2000/svg" xmlns:xlink="http://www.w3.org/1999/xlink" version="1.1" id="Capa_1" x="0px" y="0px" viewBox="0 0 512.001 512.001" style="enable-background:new 0 0 512.001 512.001;" xml:space="preserve" width="512px" height="512px" class=""><g><g>
	<g>
		<path d="M474.851,90.917c-1.859-1.86-4.439-2.93-7.07-2.93c-2.63,0-5.21,1.069-7.069,2.93c-1.86,1.86-2.931,4.439-2.931,7.07    c0,2.63,1.07,5.21,2.931,7.069c1.87,1.86,4.439,2.931,7.069,2.931s5.21-1.07,7.07-2.931c1.87-1.859,2.93-4.439,2.93-7.069    C477.781,95.356,476.721,92.777,474.851,90.917z" data-original="#000000" class="active-path" data-old_color="#96cf00" fill="#96cf00"/>
	</g>
</g><g>
	<g>
		<path d="M381.07,214.507c-1.859-1.86-4.439-2.93-7.069-2.93s-5.21,1.069-7.07,2.93c-1.86,1.861-2.93,4.43-2.93,7.07    c0,2.63,1.069,5.21,2.93,7.069c1.86,1.86,4.44,2.931,7.07,2.931s5.21-1.07,7.069-2.931c1.86-1.859,2.931-4.439,2.931-7.069    S382.93,216.367,381.07,214.507z" data-original="#000000" class="active-path" data-old_color="#96cf00" fill="#96cf00"/>
	</g>
</g><g>
	<g>
		<path d="M502.002,299.987H484v-2.41c0-16.542-13.458-30-30-30s-30,13.458-30,30v2.41h-17v-44.41h70.5    c19.023,0,34.5-15.477,34.5-34.5v-139c0-19.023-15.477-34.5-34.5-34.5h-207c-5.522,0-10,4.478-10,10s4.478,10,10,10h94.535    l-47.284,47.284c-3.905,3.905-3.905,10.237,0,14.143c1.953,1.952,4.512,2.929,7.071,2.929s5.118-0.977,7.071-2.929l61.427-61.427    h84.18c7.995,0,14.5,6.505,14.5,14.5v105.5h-99.665l58.854-58.855c3.905-3.905,3.905-10.237,0-14.143    c-3.906-3.904-10.236-3.904-14.143,0l-70.992,70.993c-0.613,0.613-1.119,1.291-1.539,2.005H256v-65.645c0-5.522-4.478-10-10-10    c-5.522,0-10,4.478-10,10v99.145c0,19.023,15.477,34.5,34.5,34.5H341v44.41H165.995c-4.646-22.795-24.847-40-48.994-40h-9.038    v-3.873c0-5.522-4.478-10-10-10c-5.522,0-10,4.478-10,10v3.873h-9.069L22.31,153.422l71.928-71.567l3.747,3.746    c-0.517,3.457-0.783,6.976-0.783,10.536c0,18.762,7.307,36.4,20.573,49.667l17.754,17.755l23.387,60.475    c1.534,3.966,5.318,6.396,9.329,6.396c1.199,0,2.419-0.218,3.604-0.676c5.151-1.992,7.713-7.783,5.721-12.934l-21.801-56.373    l75.99-75.99l56.647,21.813c1.183,0.455,2.396,0.671,3.592,0.671c4.016,0,7.805-2.438,9.334-6.409    c1.984-5.154-0.585-10.941-5.738-12.926l-60.736-23.387L217.11,46.47c-16.365-16.365-38.861-22.942-60.162-19.75L136.976,6.749    c-8.978-8.978-23.582-8.976-32.558,0L78.053,33.113c-8.976,8.977-8.976,23.581,0,32.558l2.042,2.042L2.946,144.474    c-3.121,3.106-3.844,7.889-1.778,11.778L56.25,259.986h-6.249c-27.57,0-50,22.43-50,50v48c0,5.522,4.478,10,10,10h29.986v134    c0,5.522,4.478,10,10,10h40c5.522,0,10-4.478,10-10v-134h113.514c5.522,0,10-4.478,10-10c0-5.522-4.478-10-10-10h-193.5v-28h137    h335.001v28H302.5c-5.522,0-10,4.478-10,10c0,5.522,4.478,10,10,10H412v134c0,5.522,4.478,10,10,10h40c5.522,0,10-4.478,10-10    v-134h30.001c5.522,0,10-4.478,10-10v-48C512.001,304.464,507.524,299.987,502.002,299.987z M167.441,45.899    c5.231-0.002,10.334,0.802,15.181,2.332l-43.496,43.497c-3.905,3.905-3.905,10.237,0,14.143c1.953,1.952,4.512,2.929,7.071,2.929    c2.559,0,5.118-0.977,7.071-2.929l47.401-47.402c0.782,0.692,1.552,1.4,2.297,2.145l12.177,12.177l-71.049,71.049l-12.177-12.177    c-9.489-9.489-14.716-22.105-14.716-35.524s5.227-26.035,14.716-35.524C141.406,51.126,154.021,45.899,167.441,45.899z     M92.196,47.255l26.364-26.364c1.179-1.178,3.096-1.176,4.272,0l12.689,12.689c-6.397,3.259-12.402,7.545-17.747,12.89    c-5.282,5.282-9.601,11.265-12.909,17.728l-12.67-12.67C91.018,50.35,91.018,48.433,92.196,47.255z M59.988,367.987h20v124h-20    V367.987z M21.714,299.987c4.127-11.641,15.249-20,28.286-20h22.86c0.01,0,0.02,0.002,0.029,0.002    c0.011,0,0.021-0.002,0.033-0.002h44.078c13.037,0,24.159,8.359,28.286,20H21.714z M270.5,235.577c-7.995,0-14.5-6.505-14.5-14.5    v-13.5h236v13.5c0,7.995-6.505,14.5-14.5,14.5H270.5z M387,299.987h-26v-44.41h26V299.987z M464,299.577h-20v-2    c0-5.514,4.486-10,10-10c5.514,0,10,4.486,10,10V299.577z M452,491.987h-20v-124h20V491.987z" data-original="#000000" class="active-path" data-old_color="#96cf00" fill="#96cf00"/>
	</g>
</g><g>
	<g>
		<path d="M267.07,350.917c-1.859-1.861-4.439-2.93-7.069-2.93s-5.21,1.069-7.07,2.93c-1.86,1.861-2.93,4.439-2.93,7.07    c0,2.63,1.069,5.21,2.93,7.069c1.86,1.86,4.44,2.931,7.07,2.931s5.2-1.07,7.069-2.931c1.86-1.859,2.931-4.439,2.931-7.069    C270,355.356,268.93,352.777,267.07,350.917z" data-original="#000000" class="active-path" data-old_color="#96cf00" fill="#96cf00"/>
	</g>
</g></g> </svg>
