<?xml version="1.0"?>
<svg xmlns="http://www.w3.org/2000/svg" height="512px" viewBox="0 0 480 480" width="512px" class=""><g><path d="m472 264h-24v-16c-.015625-10.421875-5.113281-20.179688-13.65625-26.144531 8.640625-7.519531 13.617188-18.402344 13.65625-29.855469-.015625-1.875-.179688-3.75-.488281-5.601562.289062-.769532.453125-1.578126.488281-2.398438-.027344-22.082031-17.917969-39.972656-40-40h-24c-8.835938 0-16-7.164062-16-16 0-4.417969-3.582031-8-8-8s-8 3.582031-8 8v32c.085938 11.488281 6.324219 22.050781 16.34375 27.671875-.203125 1.433594-.320312 2.878906-.34375 4.328125.050781 15.507812 9.0625 29.585938 23.121094 36.128906-4.578125 5.613282-7.089844 12.628906-7.121094 19.871094v16h-88v-64c-.050781-16.761719-10.5625-31.710938-26.320312-37.433594 6.609374-7.269531 10.289062-16.738281 10.320312-26.566406v-12.449219c9.867188-5.671875 15.964844-16.171875 16-27.550781v-32c0-4.417969-3.582031-8-8-8s-8 3.582031-8 8c0 8.835938-7.164062 16-16 16h-32c-17.671875 0-32 14.328125-32 32v24c.03125 9.828125 3.710938 19.296875 10.320312 26.566406-15.757812 5.722656-26.269531 20.671875-26.320312 37.433594v64h-88v-16c-.03125-7.242188-2.542969-14.257812-7.121094-19.871094 14.058594-6.542968 23.070313-20.621094 23.121094-36.128906-.023438-1.449219-.140625-2.894531-.34375-4.328125 10.019531-5.621094 16.257812-16.183594 16.34375-27.671875v-32c0-4.417969-3.582031-8-8-8s-8 3.582031-8 8c0 8.835938-7.164062 16-16 16h-24c-22.082031.027344-39.972656 17.917969-40 40 .035156.820312.199219 1.628906.488281 2.398438-.308593 1.851562-.472656 3.726562-.488281 5.601562.039062 11.453125 5.015625 22.335938 13.65625 29.855469-8.542969 5.964843-13.640625 15.722656-13.65625 26.144531v16h-24c-4.417969 0-8 3.582031-8 8v200c0 4.417969 3.582031 8 8 8h32c4.417969 0 8-3.582031 8-8v-64h56v64c0 4.417969 3.582031 8 8 8h40c13.253906 0 24-10.746094 24-24s-10.746094-24-24-24v-64c-.027344-22.082031-17.917969-39.972656-40-40h-16v-16h88v88c0 4.417969 3.582031 8 8 8h32c4.417969 0 8-3.582031 8-8v-88h16v88c0 4.417969 3.582031 8 8 8h32c4.417969 0 8-3.582031 8-8v-88h88v16h-16c-22.082031.027344-39.972656 17.917969-40 40v64c-13.253906 0-24 10.746094-24 24s10.746094 24 24 24h40c4.417969 0 8-3.582031 8-8v-64h56v64c0 4.417969 3.582031 8 8 8h32c4.417969 0 8-3.582031 8-8v-200c0-4.417969-3.582031-8-8-8zm-104-108.296875c4.859375 2.820313 10.378906 4.304687 16 4.296875h24c10.132812.042969 19.148438 6.445312 22.527344 16h-46.527344c-1.476562-.035156-2.941406-.273438-4.351562-.710938-6.851563-1.9375-11.601563-8.167968-11.648438-15.289062zm16 36.296875h48c0 13.253906-10.746094 24-24 24s-24-10.746094-24-24zm-120-56c0 13.253906-10.746094 24-24 24s-24-10.746094-24-24v-8h48zm-32-40h32c5.621094.007812 11.140625-1.476562 16-4.296875v4.296875c0 8.835938-7.164062 16-16 16h-48c0-8.835938 7.164062-16 16-16zm-32 104c0-13.253906 10.746094-24 24-24h8v72c0 4.417969 3.582031 8 8 8s8-3.582031 8-8v-72h8c13.253906 0 24 10.746094 24 24v64h-80zm-128 16c-13.253906 0-24-10.746094-24-24h48c0 13.253906-10.746094 24-24 24zm0-56h24c5.621094.007812 11.140625-1.476562 16-4.296875v4.296875c-.046875 7.121094-4.796875 13.351562-11.648438 15.289062-1.410156.4375-2.875.675782-4.351562.710938h-46.527344c3.378906-9.554688 12.394532-15.957031 22.527344-16zm-40 304h-16v-56h16zm8-72h-24v-112h16v88c0 4.417969 3.582031 8 8 8h64v16zm120 64c0 4.417969-3.582031 8-8 8h-32v-16h32c4.417969 0 8 3.582031 8 8zm-24-88v64h-16v-64c0-4.417969-3.582031-8-8-8h-64v-16h64c13.253906 0 24 10.746094 24 24zm-88-40v-80c0-8.835938 7.164062-16 16-16s16 7.164062 16 16v80zm48-48h288v16h-288zm120 112h-16v-8c0-4.417969 3.582031-8 8-8s8 3.582031 8 8zm0-30.632812c-.671875-.238282-1.390625-.367188-2.097656-.550782-.46875-.121094-.917969-.273437-1.40625-.367187-2.972656-.609375-6.035156-.609375-9.007813 0-.480469.085937-.9375.246093-1.398437.367187-.707032.175782-1.417969.3125-2.097656.550782v-49.367188h16zm64 30.632812h-16v-8c0-4.417969 3.582031-8 8-8s8 3.582031 8 8zm0-30.632812c-.671875-.238282-1.390625-.367188-2.097656-.550782-.46875-.121094-.917969-.273437-1.40625-.367187-2.972656-.609375-6.035156-.609375-9.007813 0-.480469.085937-.9375.246093-1.398437.367187-.707032.175782-1.417969.3125-2.097656.550782v-49.367188h16zm120-57.367188v-56c0-8.835938 7.164062-16 16-16s16 7.164062 16 16v80h-32zm-56 64c0-13.253906 10.746094-24 24-24h64v16h-64c-4.417969 0-8 3.582031-8 8v64h-16zm16 96h-32c-4.417969 0-8-3.582031-8-8s3.582031-8 8-8h32zm104 0h-16v-56h16zm0-72h-88v-16h64c4.417969 0 8-3.582031 8-8v-88h16zm0 0" data-original="#000000" class="active-path" data-old_color="#56bbe7" fill="#56bbe7"/><path d="m320 104c4.417969 0 8-3.582031 8-8 0-8.835938 7.164062-16 16-16h48c17.671875 0 32-14.328125 32-32v-16c0-17.671875-14.328125-32-32-32h-48c-17.671875 0-32 14.328125-32 32v64c0 4.417969 3.582031 8 8 8zm8-72c0-8.835938 7.164062-16 16-16h48c8.835938 0 16 7.164062 16 16v16c0 8.835938-7.164062 16-16 16h-48c-5.621094-.007812-11.140625 1.476562-16 4.296875zm0 0" data-original="#000000" class="active-path" data-old_color="#56bbe7" fill="#56bbe7"/><path d="m344 32h16v16h-16zm0 0" data-original="#000000" class="active-path" data-old_color="#56bbe7" fill="#56bbe7"/><path d="m376 32h16v16h-16zm0 0" data-original="#000000" class="active-path" data-old_color="#56bbe7" fill="#56bbe7"/><path d="m104 112h48c8.835938 0 16 7.164062 16 16 0 4.417969 3.582031 8 8 8s8-3.582031 8-8v-64c0-17.671875-14.328125-32-32-32h-48c-17.671875 0-32 14.328125-32 32v16c0 17.671875 14.328125 32 32 32zm-16-48c0-8.835938 7.164062-16 16-16h48c8.835938 0 16 7.164062 16 16v36.296875c-4.859375-2.820313-10.378906-4.304687-16-4.296875h-48c-8.835938 0-16-7.164062-16-16zm0 0" data-original="#000000" class="active-path" data-old_color="#56bbe7" fill="#56bbe7"/><path d="m136 64h16v16h-16zm0 0" data-original="#000000" class="active-path" data-old_color="#56bbe7" fill="#56bbe7"/><path d="m104 64h16v16h-16zm0 0" data-original="#000000" class="active-path" data-old_color="#56bbe7" fill="#56bbe7"/></g> </svg>
